<mxfile host="app.diagrams.net" modified="2024-07-03T14:09:46.661Z" agent="Mozilla/5.0 (Windows NT 10.0; Win64; x64) AppleWebKit/537.36 (KHTML, like Gecko) Chrome/126.0.0.0 Safari/537.36" etag="scZXarnsNB_TlDF6vdeu" version="24.6.4" type="device">
  <diagram name="Page-1" id="xYiC5QDNPwpJFoOmXOrg">
    <mxGraphModel dx="880" dy="426" grid="1" gridSize="10" guides="1" tooltips="1" connect="1" arrows="1" fold="1" page="1" pageScale="1" pageWidth="850" pageHeight="1100" math="0" shadow="0">
      <root>
        <mxCell id="0" />
        <mxCell id="1" parent="0" />
        <mxCell id="CCtfQySQfrA2FDXJ_rF_-3" style="edgeStyle=orthogonalEdgeStyle;rounded=0;orthogonalLoop=1;jettySize=auto;html=1;" edge="1" parent="1" source="CCtfQySQfrA2FDXJ_rF_-6" target="CCtfQySQfrA2FDXJ_rF_-4">
          <mxGeometry relative="1" as="geometry">
            <mxPoint x="420" y="460" as="targetPoint" />
          </mxGeometry>
        </mxCell>
        <mxCell id="CCtfQySQfrA2FDXJ_rF_-1" value="start" style="rounded=1;whiteSpace=wrap;html=1;" vertex="1" parent="1">
          <mxGeometry x="380" y="100" width="120" height="70" as="geometry" />
        </mxCell>
        <mxCell id="CCtfQySQfrA2FDXJ_rF_-2" value="Homework 03.07.24" style="text;html=1;align=center;verticalAlign=middle;resizable=0;points=[];autosize=1;strokeColor=none;fillColor=none;" vertex="1" parent="1">
          <mxGeometry x="360" y="20" width="130" height="30" as="geometry" />
        </mxCell>
        <mxCell id="CCtfQySQfrA2FDXJ_rF_-4" value="end" style="rounded=1;whiteSpace=wrap;html=1;" vertex="1" parent="1">
          <mxGeometry x="380" y="850" width="120" height="60" as="geometry" />
        </mxCell>
        <mxCell id="CCtfQySQfrA2FDXJ_rF_-7" value="Calculate result of (777 * 888) +999" style="text;html=1;align=center;verticalAlign=middle;resizable=0;points=[];autosize=1;strokeColor=none;fillColor=none;" vertex="1" parent="1">
          <mxGeometry x="305" y="58" width="210" height="30" as="geometry" />
        </mxCell>
        <mxCell id="CCtfQySQfrA2FDXJ_rF_-8" value="x (int)= 777" style="rounded=0;whiteSpace=wrap;html=1;" vertex="1" parent="1">
          <mxGeometry x="380" y="200" width="120" height="60" as="geometry" />
        </mxCell>
        <mxCell id="CCtfQySQfrA2FDXJ_rF_-9" value="" style="edgeStyle=orthogonalEdgeStyle;rounded=0;orthogonalLoop=1;jettySize=auto;html=1;" edge="1" parent="1" source="CCtfQySQfrA2FDXJ_rF_-12" target="CCtfQySQfrA2FDXJ_rF_-6">
          <mxGeometry relative="1" as="geometry">
            <mxPoint x="420" y="590" as="targetPoint" />
            <mxPoint x="425" y="170" as="sourcePoint" />
          </mxGeometry>
        </mxCell>
        <mxCell id="CCtfQySQfrA2FDXJ_rF_-6" value="print (result)" style="shape=document;whiteSpace=wrap;html=1;boundedLbl=1;" vertex="1" parent="1">
          <mxGeometry x="380" y="750" width="120" height="80" as="geometry" />
        </mxCell>
        <mxCell id="CCtfQySQfrA2FDXJ_rF_-10" value="y (int)= 888" style="rounded=0;whiteSpace=wrap;html=1;" vertex="1" parent="1">
          <mxGeometry x="380" y="300" width="120" height="60" as="geometry" />
        </mxCell>
        <mxCell id="CCtfQySQfrA2FDXJ_rF_-13" value="" style="edgeStyle=orthogonalEdgeStyle;rounded=0;orthogonalLoop=1;jettySize=auto;html=1;" edge="1" parent="1" source="CCtfQySQfrA2FDXJ_rF_-1" target="CCtfQySQfrA2FDXJ_rF_-11">
          <mxGeometry relative="1" as="geometry">
            <mxPoint x="420" y="620" as="targetPoint" />
            <mxPoint x="425" y="170" as="sourcePoint" />
          </mxGeometry>
        </mxCell>
        <mxCell id="CCtfQySQfrA2FDXJ_rF_-11" value="z (int)= 999" style="rounded=0;whiteSpace=wrap;html=1;" vertex="1" parent="1">
          <mxGeometry x="380" y="410" width="120" height="60" as="geometry" />
        </mxCell>
        <mxCell id="CCtfQySQfrA2FDXJ_rF_-14" value="" style="edgeStyle=orthogonalEdgeStyle;rounded=0;orthogonalLoop=1;jettySize=auto;html=1;" edge="1" parent="1" source="CCtfQySQfrA2FDXJ_rF_-11" target="CCtfQySQfrA2FDXJ_rF_-12">
          <mxGeometry relative="1" as="geometry">
            <mxPoint x="420" y="620" as="targetPoint" />
            <mxPoint x="440" y="470" as="sourcePoint" />
          </mxGeometry>
        </mxCell>
        <mxCell id="CCtfQySQfrA2FDXJ_rF_-12" value="result (int) = ((x*y) + z)" style="rounded=0;whiteSpace=wrap;html=1;" vertex="1" parent="1">
          <mxGeometry x="380" y="500" width="120" height="60" as="geometry" />
        </mxCell>
        <mxCell id="CCtfQySQfrA2FDXJ_rF_-15" value="print ((x,&#39;x&#39;,y),&#39;+&#39;, z, &#39;=&#39;)" style="shape=document;whiteSpace=wrap;html=1;boundedLbl=1;" vertex="1" parent="1">
          <mxGeometry x="380" y="610" width="120" height="80" as="geometry" />
        </mxCell>
      </root>
    </mxGraphModel>
  </diagram>
</mxfile>
